<svg width="669" height="557" viewBox="0 0 669 557" fill="none" xmlns="http://www.w3.org/2000/svg">
<path fill-rule="evenodd" clip-rule="evenodd" d="M605.568 84.5765C605.568 111.857 592.652 136.12 572.602 151.586C598.159 176.543 614.025 211.38 614.025 249.924C614.025 325.828 552.493 387.36 476.589 387.36C424.839 387.36 379.77 358.759 356.326 316.502C348.417 319.251 340.129 321.191 331.561 322.222C332.105 326.096 332.386 330.053 332.386 334.077C332.386 380.787 294.519 418.654 247.809 418.654C201.099 418.654 163.233 380.787 163.233 334.077C163.233 300.608 182.673 271.68 210.878 257.968C202.586 241.722 197.909 223.322 197.909 203.829C197.909 137.968 251.3 84.5765 317.162 84.5765C354.894 84.5765 388.533 102.1 410.385 129.454C420.461 123.905 431.308 119.583 442.725 116.69C438.657 106.788 436.415 95.9443 436.415 84.5765C436.415 37.8662 474.281 0 520.991 0C567.701 0 605.568 37.8662 605.568 84.5765ZM626.712 449.947C650.067 449.947 669 431.014 669 407.659C669 384.304 650.067 365.37 626.712 365.37C603.357 365.37 584.424 384.304 584.424 407.659C584.424 412.303 585.172 416.772 586.555 420.953C580.433 422.767 575.966 428.435 575.966 435.146C575.966 443.32 582.592 449.947 590.767 449.947C596.089 449.947 600.754 447.138 603.363 442.922C610.054 447.361 618.081 449.947 626.712 449.947ZM205.521 51.5917C205.521 74.9468 186.588 93.8799 163.233 93.8799C139.877 93.8799 120.944 74.9468 120.944 51.5917C120.944 28.2365 139.877 9.30343 163.233 9.30343C186.588 9.30343 205.521 28.2365 205.521 51.5917ZM142.089 224.973C153.766 224.973 163.233 215.507 163.233 203.829C163.233 192.152 153.766 182.685 142.089 182.685C137.304 182.685 132.891 184.274 129.347 186.954C122.472 172.906 108.037 163.233 91.3426 163.233C67.9874 163.233 49.0544 182.166 49.0544 205.521C49.0544 228.876 67.9874 247.809 91.3426 247.809C109.037 247.809 124.193 236.942 130.5 221.518C133.828 223.703 137.81 224.973 142.089 224.973ZM643.627 176.342C643.627 184.516 637 191.143 628.826 191.143C620.652 191.143 614.025 184.516 614.025 176.342C614.025 168.168 620.652 161.541 628.826 161.541C637 161.541 643.627 168.168 643.627 176.342ZM248.232 93.0341C256.406 93.0341 263.033 86.4075 263.033 78.2332C263.033 70.0589 256.406 63.4324 248.232 63.4324C240.058 63.4324 233.431 70.0589 233.431 78.2332C233.431 86.4075 240.058 93.0341 248.232 93.0341ZM277.411 449.524C277.411 457.698 270.784 464.325 262.61 464.325C254.436 464.325 247.809 457.698 247.809 449.524C247.809 441.35 254.436 434.723 262.61 434.723C270.784 434.723 277.411 441.35 277.411 449.524ZM472.783 407.236C472.783 415.41 466.156 422.037 457.982 422.037C449.807 422.037 443.181 415.41 443.181 407.236C443.181 399.061 449.807 392.435 457.982 392.435C466.156 392.435 472.783 399.061 472.783 407.236ZM520.991 473.628C527.531 473.628 532.832 468.327 532.832 461.788C532.832 455.248 527.531 449.947 520.991 449.947C514.452 449.947 509.15 455.248 509.15 461.788C509.15 468.327 514.452 473.628 520.991 473.628ZM629.249 42.2882C629.249 48.8277 623.948 54.1289 617.408 54.1289C610.869 54.1289 605.568 48.8277 605.568 42.2882C605.568 35.7488 610.869 30.4475 617.408 30.4475C623.948 30.4475 629.249 35.7488 629.249 42.2882ZM367.062 84.5765C378.74 84.5765 388.206 75.1099 388.206 63.4324C388.206 51.7548 378.74 42.2882 367.062 42.2882C355.384 42.2882 345.918 51.7548 345.918 63.4324C345.918 75.1099 355.384 84.5765 367.062 84.5765ZM451.638 471.937C451.638 518.647 413.772 556.513 367.062 556.513C320.352 556.513 282.485 518.647 282.485 471.937C282.485 425.226 320.352 387.36 367.062 387.36C413.772 387.36 451.638 425.226 451.638 471.937ZM126.865 438.106C126.865 473.139 98.4651 501.539 63.4324 501.539C28.3996 501.539 0 473.139 0 438.106C0 403.073 28.3996 374.674 63.4324 374.674C98.4651 374.674 126.865 403.073 126.865 438.106ZM81.6163 546.364C89.7906 546.364 96.4172 539.737 96.4172 531.563C96.4172 523.389 89.7906 516.762 81.6163 516.762C73.442 516.762 66.8154 523.389 66.8154 531.563C66.8154 539.737 73.442 546.364 81.6163 546.364Z" fill="#C1F0FF"/>
<path fill-rule="evenodd" clip-rule="evenodd" d="M605.568 84.5765C605.568 111.857 592.652 136.12 572.602 151.586C598.159 176.543 614.025 211.38 614.025 249.924C614.025 325.828 552.493 387.36 476.589 387.36C424.839 387.36 379.77 358.759 356.326 316.502C348.417 319.251 340.129 321.191 331.561 322.222C332.105 326.096 332.386 330.053 332.386 334.077C332.386 380.787 294.519 418.654 247.809 418.654C201.099 418.654 163.233 380.787 163.233 334.077C163.233 300.608 182.673 271.68 210.878 257.968C202.586 241.722 197.909 223.322 197.909 203.829C197.909 137.968 251.3 84.5765 317.162 84.5765C354.894 84.5765 388.533 102.1 410.385 129.454C420.461 123.905 431.308 119.583 442.725 116.69C438.657 106.788 436.415 95.9443 436.415 84.5765C436.415 37.8662 474.281 0 520.991 0C567.701 0 605.568 37.8662 605.568 84.5765ZM626.712 449.947C650.067 449.947 669 431.014 669 407.659C669 384.304 650.067 365.37 626.712 365.37C603.357 365.37 584.424 384.304 584.424 407.659C584.424 412.303 585.172 416.772 586.555 420.953C580.433 422.767 575.966 428.435 575.966 435.146C575.966 443.32 582.592 449.947 590.767 449.947C596.089 449.947 600.754 447.138 603.363 442.922C610.054 447.361 618.081 449.947 626.712 449.947ZM205.521 51.5917C205.521 74.9468 186.588 93.8799 163.233 93.8799C139.877 93.8799 120.944 74.9468 120.944 51.5917C120.944 28.2365 139.877 9.30343 163.233 9.30343C186.588 9.30343 205.521 28.2365 205.521 51.5917ZM142.089 224.973C153.766 224.973 163.233 215.507 163.233 203.829C163.233 192.152 153.766 182.685 142.089 182.685C137.304 182.685 132.891 184.274 129.347 186.954C122.472 172.906 108.037 163.233 91.3426 163.233C67.9874 163.233 49.0544 182.166 49.0544 205.521C49.0544 228.876 67.9874 247.809 91.3426 247.809C109.037 247.809 124.193 236.942 130.5 221.518C133.828 223.703 137.81 224.973 142.089 224.973ZM643.627 176.342C643.627 184.516 637 191.143 628.826 191.143C620.652 191.143 614.025 184.516 614.025 176.342C614.025 168.168 620.652 161.541 628.826 161.541C637 161.541 643.627 168.168 643.627 176.342ZM248.232 93.0341C256.406 93.0341 263.033 86.4075 263.033 78.2332C263.033 70.0589 256.406 63.4324 248.232 63.4324C240.058 63.4324 233.431 70.0589 233.431 78.2332C233.431 86.4075 240.058 93.0341 248.232 93.0341ZM277.411 449.524C277.411 457.698 270.784 464.325 262.61 464.325C254.436 464.325 247.809 457.698 247.809 449.524C247.809 441.35 254.436 434.723 262.61 434.723C270.784 434.723 277.411 441.35 277.411 449.524ZM472.783 407.236C472.783 415.41 466.156 422.037 457.982 422.037C449.807 422.037 443.181 415.41 443.181 407.236C443.181 399.061 449.807 392.435 457.982 392.435C466.156 392.435 472.783 399.061 472.783 407.236ZM520.991 473.628C527.531 473.628 532.832 468.327 532.832 461.788C532.832 455.248 527.531 449.947 520.991 449.947C514.452 449.947 509.15 455.248 509.15 461.788C509.15 468.327 514.452 473.628 520.991 473.628ZM629.249 42.2882C629.249 48.8277 623.948 54.1289 617.408 54.1289C610.869 54.1289 605.568 48.8277 605.568 42.2882C605.568 35.7488 610.869 30.4475 617.408 30.4475C623.948 30.4475 629.249 35.7488 629.249 42.2882ZM367.062 84.5765C378.74 84.5765 388.206 75.1099 388.206 63.4324C388.206 51.7548 378.74 42.2882 367.062 42.2882C355.384 42.2882 345.918 51.7548 345.918 63.4324C345.918 75.1099 355.384 84.5765 367.062 84.5765ZM451.638 471.937C451.638 518.647 413.772 556.513 367.062 556.513C320.352 556.513 282.485 518.647 282.485 471.937C282.485 425.226 320.352 387.36 367.062 387.36C413.772 387.36 451.638 425.226 451.638 471.937ZM126.865 438.106C126.865 473.139 98.4651 501.539 63.4324 501.539C28.3996 501.539 0 473.139 0 438.106C0 403.073 28.3996 374.674 63.4324 374.674C98.4651 374.674 126.865 403.073 126.865 438.106ZM81.6163 546.364C89.7906 546.364 96.4172 539.737 96.4172 531.563C96.4172 523.389 89.7906 516.762 81.6163 516.762C73.442 516.762 66.8154 523.389 66.8154 531.563C66.8154 539.737 73.442 546.364 81.6163 546.364Z" fill="url(#paint0_linear)"/>
<defs>
<linearGradient id="paint0_linear" x1="334.5" y1="0" x2="334.5" y2="556.513" gradientUnits="userSpaceOnUse">
<stop stop-color="#E9F9FF"/>
<stop offset="1" stop-color="white" stop-opacity="0"/>
</linearGradient>
</defs>
</svg>
