<svg width="791" height="658" viewBox="0 0 791 658" fill="none" xmlns="http://www.w3.org/2000/svg">
<path fill-rule="evenodd" clip-rule="evenodd" d="M716 100C716 132.255 700.729 160.943 677.022 179.229C707.24 208.737 726 249.928 726 295.5C726 385.246 653.246 458 563.5 458C502.314 458 449.025 424.183 421.306 374.22C411.955 377.47 402.155 379.763 392.025 380.983C392.668 385.563 393 390.243 393 395C393 450.228 348.228 495 293 495C237.772 495 193 450.228 193 395C193 355.428 215.986 321.224 249.334 305.012C239.529 285.802 234 264.047 234 241C234 163.128 297.128 100 375 100C419.613 100 459.387 120.72 485.224 153.061C497.137 146.5 509.962 141.39 523.461 137.97C518.652 126.262 516 113.441 516 100C516 44.7715 560.772 0 616 0C671.228 0 716 44.7715 716 100ZM741 532C768.614 532 791 509.614 791 482C791 454.386 768.614 432 741 432C713.386 432 691 454.386 691 482C691 487.491 691.885 492.776 693.521 497.719C686.281 499.863 681 506.565 681 514.5C681 524.165 688.835 532 698.5 532C704.792 532 710.309 528.679 713.393 523.694C721.304 528.943 730.795 532 741 532ZM243 61C243 88.6142 220.614 111 193 111C165.386 111 143 88.6142 143 61C143 33.3858 165.386 11 193 11C220.614 11 243 33.3858 243 61ZM168 266C181.807 266 193 254.807 193 241C193 227.193 181.807 216 168 216C162.343 216 157.125 217.879 152.935 221.047C144.806 204.438 127.739 193 108 193C80.3858 193 58 215.386 58 243C58 270.614 80.3858 293 108 293C128.921 293 146.841 280.151 154.299 261.914C158.234 264.497 162.941 266 168 266ZM761 208.5C761 218.165 753.165 226 743.5 226C733.835 226 726 218.165 726 208.5C726 198.835 733.835 191 743.5 191C753.165 191 761 198.835 761 208.5ZM293.5 110C303.165 110 311 102.165 311 92.5C311 82.835 303.165 75 293.5 75C283.835 75 276 82.835 276 92.5C276 102.165 283.835 110 293.5 110ZM328 531.5C328 541.165 320.165 549 310.5 549C300.835 549 293 541.165 293 531.5C293 521.835 300.835 514 310.5 514C320.165 514 328 521.835 328 531.5ZM559 481.5C559 491.165 551.165 499 541.5 499C531.835 499 524 491.165 524 481.5C524 471.835 531.835 464 541.5 464C551.165 464 559 471.835 559 481.5ZM616 560C623.732 560 630 553.732 630 546C630 538.268 623.732 532 616 532C608.268 532 602 538.268 602 546C602 553.732 608.268 560 616 560ZM744 50C744 57.732 737.732 64 730 64C722.268 64 716 57.732 716 50C716 42.268 722.268 36 730 36C737.732 36 744 42.268 744 50ZM434 100C447.807 100 459 88.8071 459 75C459 61.1929 447.807 50 434 50C420.193 50 409 61.1929 409 75C409 88.8071 420.193 100 434 100ZM534 558C534 613.228 489.228 658 434 658C378.772 658 334 613.228 334 558C334 502.772 378.772 458 434 458C489.228 458 534 502.772 534 558ZM150 518C150 559.421 116.421 593 75 593C33.5786 593 0 559.421 0 518C0 476.579 33.5786 443 75 443C116.421 443 150 476.579 150 518ZM96.5 646C106.165 646 114 638.165 114 628.5C114 618.835 106.165 611 96.5 611C86.835 611 79 618.835 79 628.5C79 638.165 86.835 646 96.5 646Z" fill="#38CEFF"/>
<path fill-rule="evenodd" clip-rule="evenodd" d="M716 100C716 132.255 700.729 160.943 677.022 179.229C707.24 208.737 726 249.928 726 295.5C726 385.246 653.246 458 563.5 458C502.314 458 449.025 424.183 421.306 374.22C411.955 377.47 402.155 379.763 392.025 380.983C392.668 385.563 393 390.243 393 395C393 450.228 348.228 495 293 495C237.772 495 193 450.228 193 395C193 355.428 215.986 321.224 249.334 305.012C239.529 285.802 234 264.047 234 241C234 163.128 297.128 100 375 100C419.613 100 459.387 120.72 485.224 153.061C497.137 146.5 509.962 141.39 523.461 137.97C518.652 126.262 516 113.441 516 100C516 44.7715 560.772 0 616 0C671.228 0 716 44.7715 716 100ZM741 532C768.614 532 791 509.614 791 482C791 454.386 768.614 432 741 432C713.386 432 691 454.386 691 482C691 487.491 691.885 492.776 693.521 497.719C686.281 499.863 681 506.565 681 514.5C681 524.165 688.835 532 698.5 532C704.792 532 710.309 528.679 713.393 523.694C721.304 528.943 730.795 532 741 532ZM243 61C243 88.6142 220.614 111 193 111C165.386 111 143 88.6142 143 61C143 33.3858 165.386 11 193 11C220.614 11 243 33.3858 243 61ZM168 266C181.807 266 193 254.807 193 241C193 227.193 181.807 216 168 216C162.343 216 157.125 217.879 152.935 221.047C144.806 204.438 127.739 193 108 193C80.3858 193 58 215.386 58 243C58 270.614 80.3858 293 108 293C128.921 293 146.841 280.151 154.299 261.914C158.234 264.497 162.941 266 168 266ZM761 208.5C761 218.165 753.165 226 743.5 226C733.835 226 726 218.165 726 208.5C726 198.835 733.835 191 743.5 191C753.165 191 761 198.835 761 208.5ZM293.5 110C303.165 110 311 102.165 311 92.5C311 82.835 303.165 75 293.5 75C283.835 75 276 82.835 276 92.5C276 102.165 283.835 110 293.5 110ZM328 531.5C328 541.165 320.165 549 310.5 549C300.835 549 293 541.165 293 531.5C293 521.835 300.835 514 310.5 514C320.165 514 328 521.835 328 531.5ZM559 481.5C559 491.165 551.165 499 541.5 499C531.835 499 524 491.165 524 481.5C524 471.835 531.835 464 541.5 464C551.165 464 559 471.835 559 481.5ZM616 560C623.732 560 630 553.732 630 546C630 538.268 623.732 532 616 532C608.268 532 602 538.268 602 546C602 553.732 608.268 560 616 560ZM744 50C744 57.732 737.732 64 730 64C722.268 64 716 57.732 716 50C716 42.268 722.268 36 730 36C737.732 36 744 42.268 744 50ZM434 100C447.807 100 459 88.8071 459 75C459 61.1929 447.807 50 434 50C420.193 50 409 61.1929 409 75C409 88.8071 420.193 100 434 100ZM534 558C534 613.228 489.228 658 434 658C378.772 658 334 613.228 334 558C334 502.772 378.772 458 434 458C489.228 458 534 502.772 534 558ZM150 518C150 559.421 116.421 593 75 593C33.5786 593 0 559.421 0 518C0 476.579 33.5786 443 75 443C116.421 443 150 476.579 150 518ZM96.5 646C106.165 646 114 638.165 114 628.5C114 618.835 106.165 611 96.5 611C86.835 611 79 618.835 79 628.5C79 638.165 86.835 646 96.5 646Z" fill="url(#paint0_linear)"/>
<defs>
<linearGradient id="paint0_linear" x1="395.5" y1="0" x2="395.5" y2="658" gradientUnits="userSpaceOnUse">
<stop stop-color="#E9F9FF"/>
<stop offset="1" stop-color="white" stop-opacity="0"/>
</linearGradient>
</defs>
</svg>
