<svg width="930" height="502" viewBox="0 0 930 502" fill="none" xmlns="http://www.w3.org/2000/svg">
<rect width="256" height="42" rx="12" fill="#E0E0E0"/>
<path d="M10.6392 17.1911H14.647V28H17.3828V17.1911H21.3906V14.9091H10.6392V17.1911ZM22.0906 28H24.8136V22.4453C24.8136 21.2372 25.6957 20.4062 26.8974 20.4062C27.2745 20.4062 27.7923 20.4702 28.0479 20.5533V18.1371C27.805 18.0795 27.4663 18.0412 27.1914 18.0412C26.092 18.0412 25.1907 18.6804 24.8327 19.8949H24.7305V18.1818H22.0906V28ZM31.9743 28.1854C33.4252 28.1854 34.3649 27.5526 34.8443 26.6385H34.921V28H37.5034V21.3778C37.5034 19.0384 35.5218 18.054 33.3358 18.054C30.9835 18.054 29.4366 19.179 29.0595 20.9688L31.5779 21.1733C31.7633 20.5213 32.345 20.0419 33.323 20.0419C34.2498 20.0419 34.7804 20.5085 34.7804 21.3139V21.3523C34.7804 21.9851 34.1092 22.0682 32.4025 22.2344C30.4593 22.4134 28.7143 23.0653 28.7143 25.2578C28.7143 27.201 30.1014 28.1854 31.9743 28.1854ZM32.7541 26.3061C31.9167 26.3061 31.3159 25.9162 31.3159 25.1683C31.3159 24.4013 31.9487 24.0241 32.9075 23.8899C33.502 23.8068 34.4735 23.6662 34.7995 23.4489V24.4908C34.7995 25.5199 33.9494 26.3061 32.7541 26.3061ZM44.052 28.1918C46.6664 28.1918 48.3091 26.6577 48.437 24.4013H45.8674C45.7076 25.4496 45.0172 26.0376 44.084 26.0376C42.812 26.0376 41.9874 24.9702 41.9874 23.0909C41.9874 21.2372 42.8184 20.1761 44.084 20.1761C45.0811 20.1761 45.7203 20.8345 45.8674 21.8125H48.437C48.3219 19.5433 46.6025 18.054 44.0392 18.054C41.0605 18.054 39.2196 20.1186 39.2196 23.1293C39.2196 26.1143 41.0286 28.1918 44.052 28.1918ZM50.1804 28H52.9034V24.8807L53.6385 24.0433L56.3168 28H59.5064L55.6776 22.4325L59.321 18.1818H56.1953L53.0504 21.9084H52.9034V14.9091H50.1804V28ZM64.8741 28H67.5588V26.4276H67.6802C68.0574 27.2457 68.8819 28.1598 70.4672 28.1598C72.7044 28.1598 74.4494 26.3892 74.4494 23.1037C74.4494 19.7287 72.6277 18.054 70.4735 18.054C68.8308 18.054 68.0446 19.032 67.6802 19.831H67.5971V14.9091H64.8741V28ZM67.5396 23.0909C67.5396 21.3395 68.2811 20.2209 69.6042 20.2209C70.9529 20.2209 71.6689 21.3906 71.6689 23.0909C71.6689 24.804 70.9402 25.9929 69.6042 25.9929C68.2939 25.9929 67.5396 24.8423 67.5396 23.0909ZM80.7024 28.1918C83.6811 28.1918 85.5348 26.1527 85.5348 23.1293C85.5348 20.0866 83.6811 18.054 80.7024 18.054C77.7237 18.054 75.87 20.0866 75.87 23.1293C75.87 26.1527 77.7237 28.1918 80.7024 28.1918ZM80.7152 26.0824C79.3409 26.0824 78.6378 24.8232 78.6378 23.1101C78.6378 21.397 79.3409 20.1314 80.7152 20.1314C82.0639 20.1314 82.767 21.397 82.767 23.1101C82.767 24.8232 82.0639 26.0824 80.7152 26.0824ZM91.7415 28.1918C94.7202 28.1918 96.5739 26.1527 96.5739 23.1293C96.5739 20.0866 94.7202 18.054 91.7415 18.054C88.7628 18.054 86.9091 20.0866 86.9091 23.1293C86.9091 26.1527 88.7628 28.1918 91.7415 28.1918ZM91.7543 26.0824C90.38 26.0824 89.6768 24.8232 89.6768 23.1101C89.6768 21.397 90.38 20.1314 91.7543 20.1314C93.103 20.1314 93.8061 21.397 93.8061 23.1101C93.8061 24.8232 93.103 26.0824 91.7543 26.0824ZM98.3445 28H101.067V24.8807L101.803 24.0433L104.481 28H107.67L103.842 22.4325L107.485 18.1818H104.359L101.214 21.9084H101.067V14.9091H98.3445V28ZM116.99 20.9815C116.747 19.1726 115.29 18.054 112.81 18.054C110.298 18.054 108.642 19.2173 108.648 21.1094C108.642 22.5795 109.569 23.532 111.487 23.9155L113.187 24.2543C114.043 24.4268 114.433 24.7401 114.446 25.2322C114.433 25.8139 113.8 26.2294 112.848 26.2294C111.876 26.2294 111.231 25.8139 111.065 25.0149L108.386 25.1555C108.642 27.0348 110.24 28.1918 112.842 28.1918C115.386 28.1918 117.207 26.8942 117.214 24.9574C117.207 23.5384 116.281 22.6882 114.376 22.2983L112.599 21.9403C111.685 21.7422 111.346 21.429 111.352 20.956C111.346 20.3679 112.011 19.9844 112.854 19.9844C113.8 19.9844 114.363 20.5021 114.497 21.1349L116.99 20.9815ZM127.531 28.1918C130.509 28.1918 132.363 26.1527 132.363 23.1293C132.363 20.0866 130.509 18.054 127.531 18.054C124.552 18.054 122.698 20.0866 122.698 23.1293C122.698 26.1527 124.552 28.1918 127.531 28.1918ZM127.543 26.0824C126.169 26.0824 125.466 24.8232 125.466 23.1101C125.466 21.397 126.169 20.1314 127.543 20.1314C128.892 20.1314 129.595 21.397 129.595 23.1101C129.595 24.8232 128.892 26.0824 127.543 26.0824ZM136.857 22.3239C136.863 21.0582 137.617 20.3168 138.717 20.3168C139.81 20.3168 140.468 21.0327 140.462 22.2344V28H143.185V21.7486C143.185 19.4602 141.842 18.054 139.797 18.054C138.339 18.054 137.285 18.7699 136.844 19.9141H136.729V18.1818H134.134V28H136.857V22.3239ZM158.228 19.1406H161.041C160.683 16.5518 158.401 14.7301 155.441 14.7301C151.983 14.7301 149.318 17.223 149.318 21.4673C149.318 25.6094 151.811 28.179 155.499 28.179C158.804 28.179 161.162 26.0888 161.162 22.6435V20.9943H155.684V23.0781H158.497C158.458 24.7017 157.353 25.7308 155.512 25.7308C153.434 25.7308 152.124 24.1776 152.124 21.4418C152.124 18.7188 153.485 17.1783 155.486 17.1783C156.912 17.1783 157.877 17.9134 158.228 19.1406ZM167.626 28.1918C170.605 28.1918 172.459 26.1527 172.459 23.1293C172.459 20.0866 170.605 18.054 167.626 18.054C164.648 18.054 162.794 20.0866 162.794 23.1293C162.794 26.1527 164.648 28.1918 167.626 28.1918ZM167.639 26.0824C166.265 26.0824 165.562 24.8232 165.562 23.1101C165.562 21.397 166.265 20.1314 167.639 20.1314C168.988 20.1314 169.691 21.397 169.691 23.1101C169.691 24.8232 168.988 26.0824 167.639 26.0824ZM178.665 28.1918C181.644 28.1918 183.498 26.1527 183.498 23.1293C183.498 20.0866 181.644 18.054 178.665 18.054C175.687 18.054 173.833 20.0866 173.833 23.1293C173.833 26.1527 175.687 28.1918 178.665 28.1918ZM178.678 26.0824C177.304 26.0824 176.601 24.8232 176.601 23.1101C176.601 21.397 177.304 20.1314 178.678 20.1314C180.027 20.1314 180.73 21.397 180.73 23.1101C180.73 24.8232 180.027 26.0824 178.678 26.0824ZM188.886 28.1598C190.471 28.1598 191.296 27.2457 191.673 26.4276H191.788V28H194.473V14.9091H191.756V19.831H191.673C191.309 19.032 190.523 18.054 188.88 18.054C186.726 18.054 184.904 19.7287 184.904 23.1037C184.904 26.3892 186.649 28.1598 188.886 28.1598ZM189.749 25.9929C188.413 25.9929 187.684 24.804 187.684 23.0909C187.684 21.3906 188.4 20.2209 189.749 20.2209C191.072 20.2209 191.814 21.3395 191.814 23.0909C191.814 24.8423 191.059 25.9929 189.749 25.9929ZM196.712 28H199.435V22.4453C199.435 21.2372 200.317 20.4062 201.518 20.4062C201.896 20.4062 202.413 20.4702 202.669 20.5533V18.1371C202.426 18.0795 202.087 18.0412 201.812 18.0412C200.713 18.0412 199.812 18.6804 199.454 19.8949H199.352V18.1818H196.712V28ZM208.094 28.1918C210.523 28.1918 212.16 27.0092 212.543 25.1875L210.025 25.0213C209.75 25.7692 209.047 26.1591 208.139 26.1591C206.778 26.1591 205.915 25.2578 205.915 23.794V23.7876H212.601V23.0398C212.601 19.7031 210.581 18.054 207.986 18.054C205.096 18.054 203.224 20.1058 203.224 23.1357C203.224 26.2486 205.071 28.1918 208.094 28.1918ZM205.915 22.1001C205.972 20.9815 206.822 20.0866 208.03 20.0866C209.213 20.0866 210.031 20.9304 210.037 22.1001H205.915ZM217.177 28.1854C218.628 28.1854 219.568 27.5526 220.047 26.6385H220.124V28H222.706V21.3778C222.706 19.0384 220.725 18.054 218.539 18.054C216.187 18.054 214.64 19.179 214.263 20.9688L216.781 21.1733C216.966 20.5213 217.548 20.0419 218.526 20.0419C219.453 20.0419 219.983 20.5085 219.983 21.3139V21.3523C219.983 21.9851 219.312 22.0682 217.606 22.2344C215.662 22.4134 213.917 23.0653 213.917 25.2578C213.917 27.201 215.305 28.1854 217.177 28.1854ZM217.957 26.3061C217.12 26.3061 216.519 25.9162 216.519 25.1683C216.519 24.4013 217.152 24.0241 218.111 23.8899C218.705 23.8068 219.677 23.6662 220.003 23.4489V24.4908C220.003 25.5199 219.153 26.3061 217.957 26.3061ZM228.437 28.1598C230.022 28.1598 230.847 27.2457 231.224 26.4276H231.339V28H234.024V14.9091H231.307V19.831H231.224C230.86 19.032 230.073 18.054 228.431 18.054C226.276 18.054 224.455 19.7287 224.455 23.1037C224.455 26.3892 226.2 28.1598 228.437 28.1598ZM229.3 25.9929C227.964 25.9929 227.235 24.804 227.235 23.0909C227.235 21.3906 227.951 20.2209 229.3 20.2209C230.623 20.2209 231.365 21.3395 231.365 23.0909C231.365 24.8423 230.61 25.9929 229.3 25.9929ZM244.431 20.9815C244.189 19.1726 242.731 18.054 240.251 18.054C237.739 18.054 236.083 19.2173 236.09 21.1094C236.083 22.5795 237.01 23.532 238.928 23.9155L240.628 24.2543C241.485 24.4268 241.875 24.7401 241.887 25.2322C241.875 25.8139 241.242 26.2294 240.289 26.2294C239.318 26.2294 238.672 25.8139 238.506 25.0149L235.828 25.1555C236.083 27.0348 237.681 28.1918 240.283 28.1918C242.827 28.1918 244.649 26.8942 244.655 24.9574C244.649 23.5384 243.722 22.6882 241.817 22.2983L240.04 21.9403C239.126 21.7422 238.787 21.429 238.794 20.956C238.787 20.3679 239.452 19.9844 240.296 19.9844C241.242 19.9844 241.804 20.5021 241.939 21.1349L244.431 20.9815Z" fill="#333333"/>
<path d="M148.41 22.1065H245.288V23.826H148.41V22.1065Z" fill="#333333"/>
<rect y="92" width="356" height="42" rx="12" fill="#E0E0E0"/>
<path d="M9.13778 106.909V120H11.8224V111.447H11.9311L15.3189 119.936H17.147L20.5348 111.479H20.6435V120H23.3281V106.909H19.9148L16.3097 115.705H16.1562L12.5511 106.909H9.13778ZM28.3571 120.185C29.8081 120.185 30.7477 119.553 31.2271 118.638H31.3038V120H33.8862V113.378C33.8862 111.038 31.9047 110.054 29.7186 110.054C27.3663 110.054 25.8194 111.179 25.4423 112.969L27.9608 113.173C28.1461 112.521 28.7278 112.042 29.7058 112.042C30.6326 112.042 31.1632 112.509 31.1632 113.314V113.352C31.1632 113.985 30.492 114.068 28.7853 114.234C26.8422 114.413 25.0971 115.065 25.0971 117.258C25.0971 119.201 26.4842 120.185 28.3571 120.185ZM29.1369 118.306C28.2995 118.306 27.6987 117.916 27.6987 117.168C27.6987 116.401 28.3315 116.024 29.2903 115.89C29.8848 115.807 30.8564 115.666 31.1824 115.449V116.491C31.1824 117.52 30.3322 118.306 29.1369 118.306ZM35.9988 120H38.7218V114.445C38.7218 113.237 39.6039 112.406 40.8056 112.406C41.1827 112.406 41.7005 112.47 41.9561 112.553V110.137C41.7132 110.08 41.3745 110.041 41.0996 110.041C40.0002 110.041 39.0989 110.68 38.7409 111.895H38.6387V110.182H35.9988V120ZM43.364 120H46.087V116.881L46.8221 116.043L49.5004 120H52.69L48.8612 114.433L52.5046 110.182H49.3789L46.234 113.908H46.087V106.909H43.364V120ZM67.16 110.182H64.2772L62.2445 117.207H62.1422L60.1032 110.182H57.2267L60.6593 120H63.7275L67.16 110.182ZM68.5534 120H71.2765V110.182H68.5534V120ZM69.9213 108.916C70.7331 108.916 71.3979 108.296 71.3979 107.536C71.3979 106.781 70.7331 106.161 69.9213 106.161C69.1159 106.161 68.4512 106.781 68.4512 107.536C68.4512 108.296 69.1159 108.916 69.9213 108.916ZM77.0756 120.16C78.6609 120.16 79.4854 119.246 79.8626 118.428H79.9776V120H82.6623V106.909H79.9457V111.831H79.8626C79.4982 111.032 78.712 110.054 77.0692 110.054C74.9151 110.054 73.0934 111.729 73.0934 115.104C73.0934 118.389 74.8384 120.16 77.0756 120.16ZM77.9386 117.993C76.6026 117.993 75.8739 116.804 75.8739 115.091C75.8739 113.391 76.5898 112.221 77.9386 112.221C79.2617 112.221 80.0032 113.339 80.0032 115.091C80.0032 116.842 79.2489 117.993 77.9386 117.993ZM89.3755 120.192C91.8045 120.192 93.4409 119.009 93.8244 117.188L91.3059 117.021C91.0311 117.769 90.3279 118.159 89.4203 118.159C88.0588 118.159 87.1958 117.258 87.1958 115.794V115.788H93.8819V115.04C93.8819 111.703 91.862 110.054 89.2669 110.054C86.3777 110.054 84.5048 112.106 84.5048 115.136C84.5048 118.249 86.3521 120.192 89.3755 120.192ZM87.1958 114.1C87.2534 112.982 88.1035 112.087 89.3116 112.087C90.4941 112.087 91.3123 112.93 91.3187 114.1H87.1958ZM100.095 120.192C103.074 120.192 104.927 118.153 104.927 115.129C104.927 112.087 103.074 110.054 100.095 110.054C97.1163 110.054 95.2626 112.087 95.2626 115.129C95.2626 118.153 97.1163 120.192 100.095 120.192ZM100.108 118.082C98.7335 118.082 98.0304 116.823 98.0304 115.11C98.0304 113.397 98.7335 112.131 100.108 112.131C101.456 112.131 102.16 113.397 102.16 115.11C102.16 116.823 101.456 118.082 100.108 118.082ZM113.664 120.185C115.115 120.185 116.054 119.553 116.534 118.638H116.61V120H119.193V113.378C119.193 111.038 117.211 110.054 115.025 110.054C112.673 110.054 111.126 111.179 110.749 112.969L113.267 113.173C113.453 112.521 114.034 112.042 115.012 112.042C115.939 112.042 116.47 112.509 116.47 113.314V113.352C116.47 113.985 115.799 114.068 114.092 114.234C112.149 114.413 110.404 115.065 110.404 117.258C110.404 119.201 111.791 120.185 113.664 120.185ZM114.444 118.306C113.606 118.306 113.005 117.916 113.005 117.168C113.005 116.401 113.638 116.024 114.597 115.89C115.191 115.807 116.163 115.666 116.489 115.449V116.491C116.489 117.52 115.639 118.306 114.444 118.306ZM129.474 112.982C129.232 111.173 127.774 110.054 125.294 110.054C122.782 110.054 121.126 111.217 121.133 113.109C121.126 114.58 122.053 115.532 123.971 115.915L125.671 116.254C126.528 116.427 126.918 116.74 126.93 117.232C126.918 117.814 126.285 118.229 125.332 118.229C124.361 118.229 123.715 117.814 123.549 117.015L120.871 117.156C121.126 119.035 122.724 120.192 125.326 120.192C127.87 120.192 129.692 118.894 129.698 116.957C129.692 115.538 128.765 114.688 126.86 114.298L125.083 113.94C124.169 113.742 123.83 113.429 123.837 112.956C123.83 112.368 124.495 111.984 125.339 111.984C126.285 111.984 126.847 112.502 126.982 113.135L129.474 112.982ZM138.577 120H141.274L143.761 111.441H143.863L146.356 120H149.053L152.799 106.909H149.776L147.609 116.024H147.494L145.109 106.909H142.521L140.13 116.005H140.021L137.854 106.909H134.831L138.577 120ZM155.974 120.185C157.425 120.185 158.365 119.553 158.844 118.638H158.921V120H161.503V113.378C161.503 111.038 159.522 110.054 157.336 110.054C154.983 110.054 153.437 111.179 153.059 112.969L155.578 113.173C155.763 112.521 156.345 112.042 157.323 112.042C158.25 112.042 158.78 112.509 158.78 113.314V113.352C158.78 113.985 158.109 114.068 156.403 114.234C154.459 114.413 152.714 115.065 152.714 117.258C152.714 119.201 154.101 120.185 155.974 120.185ZM156.754 118.306C155.917 118.306 155.316 117.916 155.316 117.168C155.316 116.401 155.949 116.024 156.907 115.89C157.502 115.807 158.474 115.666 158.8 115.449V116.491C158.8 117.52 157.949 118.306 156.754 118.306ZM168.838 110.182H166.991V107.83H164.268V110.182H162.926V112.227H164.268V117.341C164.255 119.265 165.566 120.217 167.541 120.134C168.244 120.109 168.742 119.968 169.017 119.879L168.589 117.852C168.455 117.878 168.167 117.942 167.911 117.942C167.368 117.942 166.991 117.737 166.991 116.983V112.227H168.838V110.182ZM174.943 120.192C177.557 120.192 179.2 118.658 179.328 116.401H176.758C176.598 117.45 175.908 118.038 174.975 118.038C173.703 118.038 172.878 116.97 172.878 115.091C172.878 113.237 173.709 112.176 174.975 112.176C175.972 112.176 176.611 112.835 176.758 113.812H179.328C179.213 111.543 177.493 110.054 174.93 110.054C171.951 110.054 170.11 112.119 170.11 115.129C170.11 118.114 171.919 120.192 174.943 120.192ZM183.794 114.324C183.8 113.058 184.574 112.317 185.686 112.317C186.792 112.317 187.444 113.026 187.438 114.234V120H190.161V113.749C190.167 111.447 188.812 110.054 186.766 110.054C185.277 110.054 184.28 110.757 183.832 111.914H183.717V106.909H181.071V120H183.794V114.324ZM196.521 120H204.901V117.718H199.288V106.909H196.521V120ZM209.482 120.185C210.933 120.185 211.873 119.553 212.352 118.638H212.429V120H215.011V113.378C215.011 111.038 213.03 110.054 210.844 110.054C208.491 110.054 206.944 111.179 206.567 112.969L209.086 113.173C209.271 112.521 209.853 112.042 210.831 112.042C211.758 112.042 212.288 112.509 212.288 113.314V113.352C212.288 113.985 211.617 114.068 209.91 114.234C207.967 114.413 206.222 115.065 206.222 117.258C206.222 119.201 207.609 120.185 209.482 120.185ZM210.262 118.306C209.425 118.306 208.824 117.916 208.824 117.168C208.824 116.401 209.456 116.024 210.415 115.89C211.01 115.807 211.981 115.666 212.307 115.449V116.491C212.307 117.52 211.457 118.306 210.262 118.306ZM222.346 110.182H220.499V107.83H217.776V110.182H216.433V112.227H217.776V117.341C217.763 119.265 219.073 120.217 221.048 120.134C221.752 120.109 222.25 119.968 222.525 119.879L222.097 117.852C221.963 117.878 221.675 117.942 221.419 117.942C220.876 117.942 220.499 117.737 220.499 116.983V112.227H222.346V110.182ZM228.489 120.192C230.918 120.192 232.554 119.009 232.938 117.188L230.419 117.021C230.144 117.769 229.441 118.159 228.534 118.159C227.172 118.159 226.309 117.258 226.309 115.794V115.788H232.995V115.04C232.995 111.703 230.975 110.054 228.38 110.054C225.491 110.054 223.618 112.106 223.618 115.136C223.618 118.249 225.465 120.192 228.489 120.192ZM226.309 114.1C226.367 112.982 227.217 112.087 228.425 112.087C229.607 112.087 230.426 112.93 230.432 114.1H226.309ZM234.772 120H237.495V114.445C237.495 113.237 238.377 112.406 239.579 112.406C239.956 112.406 240.474 112.47 240.73 112.553V110.137C240.487 110.08 240.148 110.041 239.873 110.041C238.774 110.041 237.872 110.68 237.514 111.895H237.412V110.182H234.772V120ZM250.74 120.192C253.718 120.192 255.572 118.153 255.572 115.129C255.572 112.087 253.718 110.054 250.74 110.054C247.761 110.054 245.907 112.087 245.907 115.129C245.907 118.153 247.761 120.192 250.74 120.192ZM250.752 118.082C249.378 118.082 248.675 116.823 248.675 115.11C248.675 113.397 249.378 112.131 250.752 112.131C252.101 112.131 252.804 113.397 252.804 115.11C252.804 116.823 252.101 118.082 250.752 118.082ZM260.066 114.324C260.072 113.058 260.826 112.317 261.926 112.317C263.019 112.317 263.677 113.033 263.671 114.234V120H266.394V113.749C266.394 111.46 265.051 110.054 263.006 110.054C261.548 110.054 260.494 110.77 260.053 111.914H259.938V110.182H257.343V120H260.066V114.324ZM271.99 106.909L276.765 115.372V120H279.513V115.372L284.288 106.909H281.188L278.203 112.547H278.075L275.09 106.909H271.99ZM288.146 120.192C291.124 120.192 292.978 118.153 292.978 115.129C292.978 112.087 291.124 110.054 288.146 110.054C285.167 110.054 283.313 112.087 283.313 115.129C283.313 118.153 285.167 120.192 288.146 120.192ZM288.159 118.082C286.784 118.082 286.081 116.823 286.081 115.11C286.081 113.397 286.784 112.131 288.159 112.131C289.507 112.131 290.21 113.397 290.21 115.11C290.21 116.823 289.507 118.082 288.159 118.082ZM301.045 115.82C301.051 117.136 300.15 117.827 299.172 117.827C298.143 117.827 297.478 117.104 297.472 115.947V110.182H294.749V116.433C294.755 118.728 296.097 120.128 298.073 120.128C299.549 120.128 300.61 119.367 301.051 118.217H301.154V120H303.768V110.182H301.045V115.82ZM304.585 109.191H308.592V120H311.328V109.191H315.336V106.909H304.585V109.191ZM322.016 115.82C322.022 117.136 321.121 117.827 320.143 117.827C319.114 117.827 318.449 117.104 318.442 115.947V110.182H315.719V116.433C315.726 118.728 317.068 120.128 319.043 120.128C320.52 120.128 321.581 119.367 322.022 118.217H322.124V120H324.739V110.182H322.016V115.82ZM326.968 120H329.653V118.428H329.774C330.151 119.246 330.976 120.16 332.561 120.16C334.798 120.16 336.543 118.389 336.543 115.104C336.543 111.729 334.721 110.054 332.567 110.054C330.925 110.054 330.138 111.032 329.774 111.831H329.691V106.909H326.968V120ZM329.633 115.091C329.633 113.339 330.375 112.221 331.698 112.221C333.047 112.221 333.763 113.391 333.763 115.091C333.763 116.804 333.034 117.993 331.698 117.993C330.388 117.993 329.633 116.842 329.633 115.091ZM342.835 120.192C345.263 120.192 346.9 119.009 347.283 117.188L344.765 117.021C344.49 117.769 343.787 118.159 342.879 118.159C341.518 118.159 340.655 117.258 340.655 115.794V115.788H347.341V115.04C347.341 111.703 345.321 110.054 342.726 110.054C339.837 110.054 337.964 112.106 337.964 115.136C337.964 118.249 339.811 120.192 342.835 120.192ZM340.655 114.1C340.712 112.982 341.562 112.087 342.771 112.087C343.953 112.087 344.771 112.93 344.778 114.1H340.655Z" fill="#333333"/>
<path d="M271.619 114.107H348.031V115.826H271.619V114.107Z" fill="#333333"/>
<rect y="184" width="214" height="42" rx="12" fill="#E0E0E0"/>
<path d="M18.2393 202.674H20.892C20.8537 200.341 18.9361 198.73 16.0213 198.73C13.1513 198.73 11.0483 200.315 11.0611 202.693C11.0547 204.624 12.4162 205.729 14.6278 206.26L16.0533 206.618C17.4787 206.963 18.2713 207.372 18.2777 208.254C18.2713 209.213 17.3636 209.865 15.9574 209.865C14.5192 209.865 13.4837 209.2 13.3942 207.89H10.7159C10.7862 210.722 12.8125 212.185 15.9893 212.185C19.1854 212.185 21.0646 210.658 21.071 208.261C21.0646 206.081 19.4219 204.924 17.1463 204.413L15.9702 204.131C14.8324 203.869 13.88 203.447 13.8991 202.508C13.8991 201.664 14.647 201.044 16.0021 201.044C17.3253 201.044 18.1371 201.645 18.2393 202.674ZM25.6813 212.185C27.1323 212.185 28.0719 211.553 28.5513 210.638H28.628V212H31.2104V205.378C31.2104 203.038 29.2289 202.054 27.0428 202.054C24.6905 202.054 23.1436 203.179 22.7665 204.969L25.285 205.173C25.4703 204.521 26.052 204.042 27.03 204.042C27.9569 204.042 28.4874 204.509 28.4874 205.314V205.352C28.4874 205.985 27.8162 206.068 26.1096 206.234C24.1664 206.413 22.4213 207.065 22.4213 209.258C22.4213 211.201 23.8084 212.185 25.6813 212.185ZM26.4611 210.306C25.6238 210.306 25.0229 209.916 25.0229 209.168C25.0229 208.401 25.6557 208.024 26.6145 207.89C27.209 207.807 28.1806 207.666 28.5066 207.449V208.491C28.5066 209.52 27.6564 210.306 26.4611 210.306ZM42.1248 202.182H39.242L37.2093 209.207H37.1071L35.068 202.182H32.1916L35.6241 212H38.6923L42.1248 202.182ZM47.6587 212.192C50.0877 212.192 51.7241 211.009 52.1076 209.188L49.5891 209.021C49.3143 209.769 48.6112 210.159 47.7035 210.159C46.342 210.159 45.479 209.258 45.479 207.794V207.788H52.1651V207.04C52.1651 203.703 50.1452 202.054 47.5501 202.054C44.6609 202.054 42.788 204.106 42.788 207.136C42.788 210.249 44.6353 212.192 47.6587 212.192ZM45.479 206.1C45.5366 204.982 46.3867 204.087 47.5948 204.087C48.7773 204.087 49.5955 204.93 49.6019 206.1H45.479ZM60.9078 212.185C62.3588 212.185 63.2985 211.553 63.7779 210.638H63.8546V212H66.437V205.378C66.437 203.038 64.4554 202.054 62.2694 202.054C59.9171 202.054 58.3702 203.179 57.9931 204.969L60.5115 205.173C60.6969 204.521 61.2786 204.042 62.2566 204.042C63.1834 204.042 63.714 204.509 63.714 205.314V205.352C63.714 205.985 63.0428 206.068 61.3361 206.234C59.3929 206.413 57.6479 207.065 57.6479 209.258C57.6479 211.201 59.035 212.185 60.9078 212.185ZM61.6877 210.306C60.8503 210.306 60.2495 209.916 60.2495 209.168C60.2495 208.401 60.8823 208.024 61.8411 207.89C62.4355 207.807 63.4071 207.666 63.7331 207.449V208.491C63.7331 209.52 62.883 210.306 61.6877 210.306ZM68.5495 212H71.2725V206.445C71.2725 205.237 72.1547 204.406 73.3564 204.406C73.7335 204.406 74.2512 204.47 74.5069 204.553V202.137C74.264 202.08 73.9252 202.041 73.6504 202.041C72.551 202.041 71.6497 202.68 71.2917 203.895H71.1895V202.182H68.5495V212ZM81.6293 202.182H79.782V199.83H77.0589V202.182H75.7166V204.227H77.0589V209.341C77.0462 211.265 78.3565 212.217 80.3317 212.134C81.0348 212.109 81.5334 211.968 81.8082 211.879L81.38 209.852C81.2457 209.878 80.9581 209.942 80.7024 209.942C80.1591 209.942 79.782 209.737 79.782 208.983V204.227H81.6293V202.182ZM83.4031 212H86.1261V202.182H83.4031V212ZM84.771 200.916C85.5827 200.916 86.2475 200.296 86.2475 199.536C86.2475 198.781 85.5827 198.161 84.771 198.161C83.9656 198.161 83.3008 198.781 83.3008 199.536C83.3008 200.296 83.9656 200.916 84.771 200.916ZM92.7434 212.192C95.3578 212.192 97.0005 210.658 97.1284 208.401H94.5588C94.399 209.45 93.7086 210.038 92.7754 210.038C91.5034 210.038 90.6788 208.97 90.6788 207.091C90.6788 205.237 91.5098 204.176 92.7754 204.176C93.7726 204.176 94.4118 204.835 94.5588 205.812H97.1284C97.0133 203.543 95.2939 202.054 92.7306 202.054C89.752 202.054 87.911 204.119 87.911 207.129C87.911 210.114 89.72 212.192 92.7434 212.192ZM101.595 198.909H98.8718V212H101.595V198.909ZM108.251 212.192C110.68 212.192 112.316 211.009 112.699 209.188L110.181 209.021C109.906 209.769 109.203 210.159 108.295 210.159C106.934 210.159 106.071 209.258 106.071 207.794V207.788H112.757V207.04C112.757 203.703 110.737 202.054 108.142 202.054C105.253 202.054 103.38 204.106 103.38 207.136C103.38 210.249 105.227 212.192 108.251 212.192ZM106.071 206.1C106.128 204.982 106.979 204.087 108.187 204.087C109.369 204.087 110.187 204.93 110.194 206.1H106.071ZM123.136 212.192C126.115 212.192 127.968 210.153 127.968 207.129C127.968 204.087 126.115 202.054 123.136 202.054C120.157 202.054 118.304 204.087 118.304 207.129C118.304 210.153 120.157 212.192 123.136 212.192ZM123.149 210.082C121.775 210.082 121.071 208.823 121.071 207.11C121.071 205.397 121.775 204.131 123.149 204.131C124.498 204.131 125.201 205.397 125.201 207.11C125.201 208.823 124.498 210.082 123.149 210.082ZM132.462 206.324C132.468 205.058 133.223 204.317 134.322 204.317C135.415 204.317 136.074 205.033 136.067 206.234V212H138.79V205.749C138.79 203.46 137.448 202.054 135.402 202.054C133.945 202.054 132.89 202.77 132.449 203.914H132.334V202.182H129.739V212H132.462V206.324ZM145.153 212H147.921V207.756H150.248C153.259 207.756 155.01 205.96 155.01 203.345C155.01 200.744 153.29 198.909 150.318 198.909H145.153V212ZM147.921 205.538V201.172H149.788C151.386 201.172 152.159 202.041 152.159 203.345C152.159 204.643 151.386 205.538 149.8 205.538H147.921ZM161.034 212.192C164.013 212.192 165.867 210.153 165.867 207.129C165.867 204.087 164.013 202.054 161.034 202.054C158.056 202.054 156.202 204.087 156.202 207.129C156.202 210.153 158.056 212.192 161.034 212.192ZM161.047 210.082C159.673 210.082 158.97 208.823 158.97 207.11C158.97 205.397 159.673 204.131 161.047 204.131C162.396 204.131 163.099 205.397 163.099 207.11C163.099 208.823 162.396 210.082 161.047 210.082ZM172.074 212.192C174.688 212.192 176.331 210.658 176.458 208.401H173.889C173.729 209.45 173.039 210.038 172.105 210.038C170.833 210.038 170.009 208.97 170.009 207.091C170.009 205.237 170.84 204.176 172.105 204.176C173.103 204.176 173.742 204.835 173.889 205.812H176.458C176.343 203.543 174.624 202.054 172.061 202.054C169.082 202.054 167.241 204.119 167.241 207.129C167.241 210.114 169.05 212.192 172.074 212.192ZM178.202 212H180.925V208.881L181.66 208.043L184.338 212H187.528L183.699 206.433L187.343 202.182H184.217L181.072 205.908H180.925V198.909H178.202V212ZM192.749 212.192C195.178 212.192 196.814 211.009 197.197 209.188L194.679 209.021C194.404 209.769 193.701 210.159 192.793 210.159C191.432 210.159 190.569 209.258 190.569 207.794V207.788H197.255V207.04C197.255 203.703 195.235 202.054 192.64 202.054C189.751 202.054 187.878 204.106 187.878 207.136C187.878 210.249 189.725 212.192 192.749 212.192ZM190.569 206.1C190.626 204.982 191.477 204.087 192.685 204.087C193.867 204.087 194.685 204.93 194.692 206.1H190.569ZM204.254 202.182H202.407V199.83H199.684V202.182H198.342V204.227H199.684V209.341C199.671 211.265 200.982 212.217 202.957 212.134C203.66 212.109 204.158 211.968 204.433 211.879L204.005 209.852C203.871 209.878 203.583 209.942 203.327 209.942C202.784 209.942 202.407 209.737 202.407 208.983V204.227H204.254V202.182Z" fill="#333333"/>
<path d="M144.016 206.107H204.938V207.826H144.016V206.107Z" fill="#333333"/>
<rect y="276" width="288" height="42" rx="12" fill="#E0E0E0"/>
<path d="M11.1378 304H16.7308C19.6712 304 21.2372 302.466 21.2372 300.382C21.2372 298.445 19.8501 297.276 18.3608 297.205V297.077C19.7223 296.771 20.7259 295.805 20.7259 294.265C20.7259 292.303 19.2685 290.909 16.3793 290.909H11.1378V304ZM13.9055 301.737V298.26H16.2259C17.5554 298.26 18.38 299.027 18.38 300.107C18.38 301.092 17.7088 301.737 16.1619 301.737H13.9055ZM13.9055 296.387V293.146H16.0085C17.2358 293.146 17.9325 293.779 17.9325 294.725C17.9325 295.761 17.0888 296.387 15.9574 296.387H13.9055ZM27.4231 304.192C30.4018 304.192 32.2555 302.153 32.2555 299.129C32.2555 296.087 30.4018 294.054 27.4231 294.054C24.4444 294.054 22.5907 296.087 22.5907 299.129C22.5907 302.153 24.4444 304.192 27.4231 304.192ZM27.4359 302.082C26.0616 302.082 25.3585 300.823 25.3585 299.11C25.3585 297.397 26.0616 296.131 27.4359 296.131C28.7846 296.131 29.4877 297.397 29.4877 299.11C29.4877 300.823 28.7846 302.082 27.4359 302.082ZM38.4622 304.192C41.4409 304.192 43.2946 302.153 43.2946 299.129C43.2946 296.087 41.4409 294.054 38.4622 294.054C35.4835 294.054 33.6298 296.087 33.6298 299.129C33.6298 302.153 35.4835 304.192 38.4622 304.192ZM38.475 302.082C37.1007 302.082 36.3975 300.823 36.3975 299.11C36.3975 297.397 37.1007 296.131 38.475 296.131C39.8237 296.131 40.5268 297.397 40.5268 299.11C40.5268 300.823 39.8237 302.082 38.475 302.082ZM45.0652 304H47.7882V300.881L48.5233 300.043L51.2015 304H54.3912L50.5623 298.433L54.2058 294.182H51.0801L47.9352 297.908H47.7882V290.909H45.0652V304ZM55.5417 304H58.2647V298.107C58.2647 297.02 58.9551 296.298 59.8627 296.298C60.7576 296.298 61.3585 296.911 61.3585 297.876V304H63.9984V298.004C63.9984 296.988 64.5801 296.298 65.5708 296.298C66.4402 296.298 67.0922 296.841 67.0922 297.934V304H69.8088V297.397C69.8088 295.268 68.5431 294.054 66.715 294.054C65.2768 294.054 64.1582 294.789 63.7555 295.914H63.6532C63.34 294.776 62.3365 294.054 60.9877 294.054C59.6646 294.054 58.661 294.757 58.252 295.914H58.1369V294.182H55.5417V304ZM74.7594 304.185C76.2104 304.185 77.15 303.553 77.6294 302.638H77.7061V304H80.2885V297.378C80.2885 295.038 78.307 294.054 76.1209 294.054C73.7686 294.054 72.2218 295.179 71.8446 296.969L74.3631 297.173C74.5485 296.521 75.1301 296.042 76.1081 296.042C77.035 296.042 77.5655 296.509 77.5655 297.314V297.352C77.5655 297.985 76.8944 298.068 75.1877 298.234C73.2445 298.413 71.4995 299.065 71.4995 301.258C71.4995 303.201 72.8865 304.185 74.7594 304.185ZM75.5392 302.306C74.7019 302.306 74.101 301.916 74.101 301.168C74.101 300.401 74.7338 300.024 75.6926 299.89C76.2871 299.807 77.2587 299.666 77.5847 299.449V300.491C77.5847 301.52 76.7346 302.306 75.5392 302.306ZM82.4011 304H85.1241V298.445C85.1241 297.237 86.0062 296.406 87.2079 296.406C87.5851 296.406 88.1028 296.47 88.3585 296.553V294.137C88.1156 294.08 87.7768 294.041 87.502 294.041C86.4025 294.041 85.5012 294.68 85.1433 295.895H85.041V294.182H82.4011V304ZM89.7663 304H92.4893V300.881L93.2244 300.043L95.9027 304H99.0923L95.2635 298.433L98.907 294.182H95.7812L92.6364 297.908H92.4893V290.909H89.7663V304ZM104.46 304H107.145V302.428H107.266C107.643 303.246 108.468 304.16 110.053 304.16C112.29 304.16 114.035 302.389 114.035 299.104C114.035 295.729 112.214 294.054 110.059 294.054C108.417 294.054 107.631 295.032 107.266 295.831H107.183V290.909H104.46V304ZM107.126 299.091C107.126 297.339 107.867 296.221 109.19 296.221C110.539 296.221 111.255 297.391 111.255 299.091C111.255 300.804 110.526 301.993 109.19 301.993C107.88 301.993 107.126 300.842 107.126 299.091ZM118.575 290.909H115.852V304H118.575V290.909ZM125.193 304.192C128.171 304.192 130.025 302.153 130.025 299.129C130.025 296.087 128.171 294.054 125.193 294.054C122.214 294.054 120.36 296.087 120.36 299.129C120.36 302.153 122.214 304.192 125.193 304.192ZM125.205 302.082C123.831 302.082 123.128 300.823 123.128 299.11C123.128 297.397 123.831 296.131 125.205 296.131C126.554 296.131 127.257 297.397 127.257 299.11C127.257 300.823 126.554 302.082 125.205 302.082ZM136.219 307.822C139.025 307.822 141.019 306.544 141.019 304.096V294.182H138.316V295.831H138.213C137.849 295.032 137.05 294.054 135.407 294.054C133.253 294.054 131.431 295.729 131.431 299.072C131.431 302.338 133.202 303.859 135.414 303.859C136.98 303.859 137.855 303.073 138.213 302.261H138.328V304.058C138.328 305.342 137.465 305.866 136.283 305.866C135.081 305.866 134.474 305.342 134.25 304.812L131.732 305.151C132.058 306.634 133.573 307.822 136.219 307.822ZM136.276 301.814C134.941 301.814 134.212 300.753 134.212 299.059C134.212 297.391 134.928 296.221 136.276 296.221C137.6 296.221 138.341 297.339 138.341 299.059C138.341 300.791 137.587 301.814 136.276 301.814ZM147.352 307.682H150.075V302.428H150.158C150.536 303.246 151.36 304.16 152.945 304.16C155.183 304.16 156.928 302.389 156.928 299.104C156.928 295.729 155.106 294.054 152.952 294.054C151.309 294.054 150.523 295.032 150.158 295.831H150.037V294.182H147.352V307.682ZM150.018 299.091C150.018 297.339 150.759 296.221 152.082 296.221C153.431 296.221 154.147 297.391 154.147 299.091C154.147 300.804 153.418 301.993 152.082 301.993C150.772 301.993 150.018 300.842 150.018 299.091ZM163.179 304.192C166.158 304.192 168.011 302.153 168.011 299.129C168.011 296.087 166.158 294.054 163.179 294.054C160.2 294.054 158.347 296.087 158.347 299.129C158.347 302.153 160.2 304.192 163.179 304.192ZM163.192 302.082C161.817 302.082 161.114 300.823 161.114 299.11C161.114 297.397 161.817 296.131 163.192 296.131C164.54 296.131 165.244 297.397 165.244 299.11C165.244 300.823 164.54 302.082 163.192 302.082ZM177.951 296.982C177.708 295.173 176.251 294.054 173.771 294.054C171.259 294.054 169.603 295.217 169.609 297.109C169.603 298.58 170.53 299.532 172.447 299.915L174.148 300.254C175.004 300.427 175.394 300.74 175.407 301.232C175.394 301.814 174.761 302.229 173.809 302.229C172.837 302.229 172.192 301.814 172.026 301.015L169.347 301.156C169.603 303.035 171.201 304.192 173.803 304.192C176.347 304.192 178.168 302.894 178.175 300.957C178.168 299.538 177.241 298.688 175.337 298.298L173.56 297.94C172.646 297.742 172.307 297.429 172.313 296.956C172.307 296.368 172.972 295.984 173.815 295.984C174.761 295.984 175.324 296.502 175.458 297.135L177.951 296.982ZM185.112 294.182H183.264V291.83H180.541V294.182H179.199V296.227H180.541V301.341C180.529 303.265 181.839 304.217 183.814 304.134C184.517 304.109 185.016 303.968 185.291 303.879L184.862 301.852C184.728 301.878 184.441 301.942 184.185 301.942C183.642 301.942 183.264 301.737 183.264 300.983V296.227H185.112V294.182ZM195.488 304.192C198.466 304.192 200.32 302.153 200.32 299.129C200.32 296.087 198.466 294.054 195.488 294.054C192.509 294.054 190.655 296.087 190.655 299.129C190.655 302.153 192.509 304.192 195.488 304.192ZM195.5 302.082C194.126 302.082 193.423 300.823 193.423 299.11C193.423 297.397 194.126 296.131 195.5 296.131C196.849 296.131 197.552 297.397 197.552 299.11C197.552 300.823 196.849 302.082 195.5 302.082ZM204.814 298.324C204.82 297.058 205.574 296.317 206.674 296.317C207.767 296.317 208.425 297.033 208.419 298.234V304H211.142V297.749C211.142 295.46 209.799 294.054 207.754 294.054C206.297 294.054 205.242 294.77 204.801 295.914H204.686V294.182H202.091V304H204.814V298.324ZM217.006 293.191H221.014V304H223.75V293.191H227.758V290.909H217.006V293.191ZM230.289 304H233.165L234.853 297.825H234.974L236.662 304H239.545L242.21 294.182H239.462L237.966 300.74H237.883L236.272 294.182H233.568L231.983 300.778H231.893L230.372 294.182H227.617L230.289 304ZM243.663 304H246.386V294.182H243.663V304ZM245.031 292.916C245.843 292.916 246.507 292.296 246.507 291.536C246.507 290.781 245.843 290.161 245.031 290.161C244.225 290.161 243.561 290.781 243.561 291.536C243.561 292.296 244.225 292.916 245.031 292.916ZM253.789 294.182H251.942V291.83H249.219V294.182H247.877V296.227H249.219V301.341C249.206 303.265 250.517 304.217 252.492 304.134C253.195 304.109 253.694 303.968 253.968 303.879L253.54 301.852C253.406 301.878 253.118 301.942 252.863 301.942C252.319 301.942 251.942 301.737 251.942 300.983V296.227H253.789V294.182ZM260.786 294.182H258.938V291.83H256.215V294.182H254.873V296.227H256.215V301.341C256.202 303.265 257.513 304.217 259.488 304.134C260.191 304.109 260.69 303.968 260.964 303.879L260.536 301.852C260.402 301.878 260.114 301.942 259.859 301.942C259.315 301.942 258.938 301.737 258.938 300.983V296.227H260.786V294.182ZM266.928 304.192C269.357 304.192 270.994 303.009 271.377 301.188L268.859 301.021C268.584 301.769 267.881 302.159 266.973 302.159C265.612 302.159 264.749 301.258 264.749 299.794V299.788H271.435V299.04C271.435 295.703 269.415 294.054 266.82 294.054C263.93 294.054 262.058 296.106 262.058 299.136C262.058 302.249 263.905 304.192 266.928 304.192ZM264.749 298.1C264.806 296.982 265.656 296.087 266.864 296.087C268.047 296.087 268.865 296.93 268.871 298.1H264.749ZM273.212 304H275.935V298.445C275.935 297.237 276.817 296.406 278.018 296.406C278.396 296.406 278.913 296.47 279.169 296.553V294.137C278.926 294.08 278.587 294.041 278.312 294.041C277.213 294.041 276.312 294.68 275.954 295.895H275.852V294.182H273.212V304Z" fill="#333333"/>
<path d="M216.367 298.107H279.482V299.826H216.367V298.107Z" fill="#333333"/>
<rect y="368" width="217" height="42" rx="12" fill="#E0E0E0"/>
<path d="M18.2393 386.674H20.892C20.8537 384.341 18.9361 382.73 16.0213 382.73C13.1513 382.73 11.0483 384.315 11.0611 386.693C11.0547 388.624 12.4162 389.729 14.6278 390.26L16.0533 390.618C17.4787 390.963 18.2713 391.372 18.2777 392.254C18.2713 393.213 17.3636 393.865 15.9574 393.865C14.5192 393.865 13.4837 393.2 13.3942 391.89H10.7159C10.7862 394.722 12.8125 396.185 15.9893 396.185C19.1854 396.185 21.0646 394.658 21.071 392.261C21.0646 390.081 19.4219 388.924 17.1463 388.413L15.9702 388.131C14.8324 387.869 13.88 387.447 13.8991 386.508C13.8991 385.664 14.647 385.044 16.0021 385.044C17.3253 385.044 18.1371 385.645 18.2393 386.674ZM25.6813 396.185C27.1323 396.185 28.0719 395.553 28.5513 394.638H28.628V396H31.2104V389.378C31.2104 387.038 29.2289 386.054 27.0428 386.054C24.6905 386.054 23.1436 387.179 22.7665 388.969L25.285 389.173C25.4703 388.521 26.052 388.042 27.03 388.042C27.9569 388.042 28.4874 388.509 28.4874 389.314V389.352C28.4874 389.985 27.8162 390.068 26.1096 390.234C24.1664 390.413 22.4213 391.065 22.4213 393.258C22.4213 395.201 23.8084 396.185 25.6813 396.185ZM26.4611 394.306C25.6238 394.306 25.0229 393.916 25.0229 393.168C25.0229 392.401 25.6557 392.024 26.6145 391.89C27.209 391.807 28.1806 391.666 28.5066 391.449V392.491C28.5066 393.52 27.6564 394.306 26.4611 394.306ZM42.1248 386.182H39.242L37.2093 393.207H37.1071L35.068 386.182H32.1916L35.6241 396H38.6923L42.1248 386.182ZM47.6587 396.192C50.0877 396.192 51.7241 395.009 52.1076 393.188L49.5891 393.021C49.3143 393.769 48.6112 394.159 47.7035 394.159C46.342 394.159 45.479 393.258 45.479 391.794V391.788H52.1651V391.04C52.1651 387.703 50.1452 386.054 47.5501 386.054C44.6609 386.054 42.788 388.106 42.788 391.136C42.788 394.249 44.6353 396.192 47.6587 396.192ZM45.479 390.1C45.5366 388.982 46.3867 388.087 47.5948 388.087C48.7773 388.087 49.5955 388.93 49.6019 390.1H45.479ZM60.8311 382.909H58.1081V396H60.8311V382.909ZM63.0124 396H65.7354V386.182H63.0124V396ZM64.3803 384.916C65.1921 384.916 65.8569 384.296 65.8569 383.536C65.8569 382.781 65.1921 382.161 64.3803 382.161C63.5749 382.161 62.9102 382.781 62.9102 383.536C62.9102 384.296 63.5749 384.916 64.3803 384.916ZM70.6397 390.324C70.6461 389.058 71.4004 388.317 72.4998 388.317C73.5929 388.317 74.2512 389.033 74.2449 390.234V396H76.9679V389.749C76.9679 387.46 75.6255 386.054 73.5801 386.054C72.1227 386.054 71.068 386.77 70.627 387.914H70.5119V386.182H67.9167V396H70.6397V390.324ZM79.114 396H81.837V392.881L82.5721 392.043L85.2504 396H88.44L84.6112 390.433L88.2546 386.182H85.1289L81.984 389.908H81.837V382.909H79.114V396ZM98.1926 396.192C101.171 396.192 103.025 394.153 103.025 391.129C103.025 388.087 101.171 386.054 98.1926 386.054C95.214 386.054 93.3603 388.087 93.3603 391.129C93.3603 394.153 95.214 396.192 98.1926 396.192ZM98.2054 394.082C96.8311 394.082 96.128 392.823 96.128 391.11C96.128 389.397 96.8311 388.131 98.2054 388.131C99.5542 388.131 100.257 389.397 100.257 391.11C100.257 392.823 99.5542 394.082 98.2054 394.082ZM107.519 390.324C107.525 389.058 108.279 388.317 109.379 388.317C110.472 388.317 111.13 389.033 111.124 390.234V396H113.847V389.749C113.847 387.46 112.504 386.054 110.459 386.054C109.002 386.054 107.947 386.77 107.506 387.914H107.391V386.182H104.796V396H107.519V390.324ZM131.16 382.909H128.405V391.142H128.29L122.639 382.909H120.21V396H122.978V387.761H123.074L128.769 396H131.16V382.909ZM137.831 396.192C140.81 396.192 142.664 394.153 142.664 391.129C142.664 388.087 140.81 386.054 137.831 386.054C134.853 386.054 132.999 388.087 132.999 391.129C132.999 394.153 134.853 396.192 137.831 396.192ZM137.844 394.082C136.47 394.082 135.767 392.823 135.767 391.11C135.767 389.397 136.47 388.131 137.844 388.131C139.193 388.131 139.896 389.397 139.896 391.11C139.896 392.823 139.193 394.082 137.844 394.082ZM149.657 386.182H147.809V383.83H145.086V386.182H143.744V388.227H145.086V393.341C145.074 395.265 146.384 396.217 148.359 396.134C149.062 396.109 149.561 395.968 149.836 395.879L149.407 393.852C149.273 393.878 148.985 393.942 148.73 393.942C148.186 393.942 147.809 393.737 147.809 392.983V388.227H149.657V386.182ZM155.799 396.192C158.228 396.192 159.865 395.009 160.248 393.188L157.73 393.021C157.455 393.769 156.752 394.159 155.844 394.159C154.483 394.159 153.62 393.258 153.62 391.794V391.788H160.306V391.04C160.306 387.703 158.286 386.054 155.691 386.054C152.801 386.054 150.929 388.106 150.929 391.136C150.929 394.249 152.776 396.192 155.799 396.192ZM153.62 390.1C153.677 388.982 154.527 388.087 155.735 388.087C156.918 388.087 157.736 388.93 157.743 390.1H153.62ZM170.252 388.982C170.009 387.173 168.551 386.054 166.071 386.054C163.559 386.054 161.904 387.217 161.91 389.109C161.904 390.58 162.831 391.532 164.748 391.915L166.449 392.254C167.305 392.427 167.695 392.74 167.708 393.232C167.695 393.814 167.062 394.229 166.11 394.229C165.138 394.229 164.493 393.814 164.326 393.015L161.648 393.156C161.904 395.035 163.502 396.192 166.103 396.192C168.647 396.192 170.469 394.894 170.475 392.957C170.469 391.538 169.542 390.688 167.637 390.298L165.86 389.94C164.946 389.742 164.608 389.429 164.614 388.956C164.608 388.368 165.272 387.984 166.116 387.984C167.062 387.984 167.625 388.502 167.759 389.135L170.252 388.982ZM179.156 396.185C180.607 396.185 181.547 395.553 182.026 394.638H182.103V396H184.685V389.378C184.685 387.038 182.703 386.054 180.517 386.054C178.165 386.054 176.618 387.179 176.241 388.969L178.76 389.173C178.945 388.521 179.527 388.042 180.505 388.042C181.431 388.042 181.962 388.509 181.962 389.314V389.352C181.962 389.985 181.291 390.068 179.584 390.234C177.641 390.413 175.896 391.065 175.896 393.258C175.896 395.201 177.283 396.185 179.156 396.185ZM179.936 394.306C179.098 394.306 178.498 393.916 178.498 393.168C178.498 392.401 179.13 392.024 180.089 391.89C180.684 391.807 181.655 391.666 181.981 391.449V392.491C181.981 393.52 181.131 394.306 179.936 394.306ZM186.798 399.682H189.521V394.428H189.604C189.981 395.246 190.805 396.16 192.391 396.16C194.628 396.16 196.373 394.389 196.373 391.104C196.373 387.729 194.551 386.054 192.397 386.054C190.754 386.054 189.968 387.032 189.604 387.831H189.482V386.182H186.798V399.682ZM189.463 391.091C189.463 389.339 190.205 388.221 191.528 388.221C192.876 388.221 193.592 389.391 193.592 391.091C193.592 392.804 192.864 393.993 191.528 393.993C190.217 393.993 189.463 392.842 189.463 391.091ZM198.188 399.682H200.911V394.428H200.994C201.371 395.246 202.196 396.16 203.781 396.16C206.018 396.16 207.763 394.389 207.763 391.104C207.763 387.729 205.942 386.054 203.788 386.054C202.145 386.054 201.359 387.032 200.994 387.831H200.873V386.182H198.188V399.682ZM200.854 391.091C200.854 389.339 201.595 388.221 202.918 388.221C204.267 388.221 204.983 389.391 204.983 391.091C204.983 392.804 204.254 393.993 202.918 393.993C201.608 393.993 200.854 392.842 200.854 391.091Z" fill="#333333"/>
<path d="M119.072 390.107H208.486V391.826H119.072V390.107Z" fill="#333333"/>
<rect y="460" width="356" height="42" rx="12" fill="#E0E0E0"/>
<path d="M15.7784 488C19.767 488 22.1832 485.533 22.1832 481.442C22.1832 477.364 19.767 474.909 15.8168 474.909H11.1378V488H15.7784ZM13.9055 485.629V477.281H15.6697C18.1243 477.281 19.4219 478.533 19.4219 481.442C19.4219 484.363 18.1243 485.629 15.6634 485.629H13.9055ZM28.6184 488.192C31.5971 488.192 33.4508 486.153 33.4508 483.129C33.4508 480.087 31.5971 478.054 28.6184 478.054C25.6397 478.054 23.786 480.087 23.786 483.129C23.786 486.153 25.6397 488.192 28.6184 488.192ZM28.6312 486.082C27.2569 486.082 26.5538 484.823 26.5538 483.11C26.5538 481.397 27.2569 480.131 28.6312 480.131C29.9799 480.131 30.6831 481.397 30.6831 483.11C30.6831 484.823 29.9799 486.082 28.6312 486.082ZM36.9121 488H39.7885L41.476 481.825H41.5975L43.285 488H46.1678L48.8333 478.182H46.0847L44.589 484.74H44.5059L42.8951 478.182H40.1912L38.606 484.778H38.5165L36.9952 478.182H34.2402L36.9121 488ZM53.0089 482.324C53.0153 481.058 53.7695 480.317 54.869 480.317C55.962 480.317 56.6204 481.033 56.614 482.234V488H59.337V481.749C59.337 479.46 57.9947 478.054 55.9492 478.054C54.4918 478.054 53.4371 478.77 52.9961 479.914H52.881V478.182H50.2859V488H53.0089V482.324ZM64.2061 474.909H61.4831V488H64.2061V474.909ZM70.8235 488.192C73.8022 488.192 75.6559 486.153 75.6559 483.129C75.6559 480.087 73.8022 478.054 70.8235 478.054C67.8448 478.054 65.9911 480.087 65.9911 483.129C65.9911 486.153 67.8448 488.192 70.8235 488.192ZM70.8363 486.082C69.462 486.082 68.7589 484.823 68.7589 483.11C68.7589 481.397 69.462 480.131 70.8363 480.131C72.185 480.131 72.8881 481.397 72.8881 483.11C72.8881 484.823 72.185 486.082 70.8363 486.082ZM80.2262 488.185C81.6772 488.185 82.6168 487.553 83.0962 486.638H83.1729V488H85.7553V481.378C85.7553 479.038 83.7738 478.054 81.5877 478.054C79.2354 478.054 77.6886 479.179 77.3114 480.969L79.8299 481.173C80.0153 480.521 80.5969 480.042 81.5749 480.042C82.5018 480.042 83.0323 480.509 83.0323 481.314V481.352C83.0323 481.985 82.3612 482.068 80.6545 482.234C78.7113 482.413 76.9663 483.065 76.9663 485.258C76.9663 487.201 78.3533 488.185 80.2262 488.185ZM81.006 486.306C80.1687 486.306 79.5678 485.916 79.5678 485.168C79.5678 484.401 80.2006 484.024 81.1594 483.89C81.7539 483.807 82.7255 483.666 83.0515 483.449V484.491C83.0515 485.52 82.2013 486.306 81.006 486.306ZM91.4858 488.16C93.071 488.16 93.8956 487.246 94.2727 486.428H94.3878V488H97.0724V474.909H94.3558V479.831H94.2727C93.9084 479.032 93.1222 478.054 91.4794 478.054C89.3253 478.054 87.5036 479.729 87.5036 483.104C87.5036 486.389 89.2486 488.16 91.4858 488.16ZM92.3487 485.993C91.0128 485.993 90.2841 484.804 90.2841 483.091C90.2841 481.391 91 480.221 92.3487 480.221C93.6719 480.221 94.4134 481.339 94.4134 483.091C94.4134 484.842 93.6591 485.993 92.3487 485.993ZM103.477 488H106.2V482.445C106.2 481.237 107.082 480.406 108.284 480.406C108.661 480.406 109.179 480.47 109.435 480.553V478.137C109.192 478.08 108.853 478.041 108.578 478.041C107.479 478.041 106.577 478.68 106.219 479.895H106.117V478.182H103.477V488ZM114.86 488.192C117.289 488.192 118.925 487.009 119.309 485.188L116.79 485.021C116.515 485.769 115.812 486.159 114.905 486.159C113.543 486.159 112.68 485.258 112.68 483.794V483.788H119.366V483.04C119.366 479.703 117.346 478.054 114.751 478.054C111.862 478.054 109.989 480.106 109.989 483.136C109.989 486.249 111.836 488.192 114.86 488.192ZM112.68 482.1C112.738 480.982 113.588 480.087 114.796 480.087C115.979 480.087 116.797 480.93 116.803 482.1H112.68ZM129.312 480.982C129.069 479.173 127.612 478.054 125.132 478.054C122.62 478.054 120.964 479.217 120.971 481.109C120.964 482.58 121.891 483.532 123.809 483.915L125.509 484.254C126.366 484.427 126.756 484.74 126.768 485.232C126.756 485.814 126.123 486.229 125.17 486.229C124.199 486.229 123.553 485.814 123.387 485.015L120.709 485.156C120.964 487.035 122.562 488.192 125.164 488.192C127.708 488.192 129.53 486.894 129.536 484.957C129.53 483.538 128.603 482.688 126.698 482.298L124.921 481.94C124.007 481.742 123.668 481.429 123.675 480.956C123.668 480.368 124.333 479.984 125.177 479.984C126.123 479.984 126.685 480.502 126.819 481.135L129.312 480.982ZM135.725 488.192C138.154 488.192 139.79 487.009 140.174 485.188L137.656 485.021C137.381 485.769 136.678 486.159 135.77 486.159C134.408 486.159 133.545 485.258 133.545 483.794V483.788H140.232V483.04C140.232 479.703 138.212 478.054 135.616 478.054C132.727 478.054 130.854 480.106 130.854 483.136C130.854 486.249 132.702 488.192 135.725 488.192ZM133.545 482.1C133.603 480.982 134.453 480.087 135.661 480.087C136.844 480.087 137.662 480.93 137.668 482.1H133.545ZM144.808 488.185C146.259 488.185 147.199 487.553 147.678 486.638H147.755V488H150.337V481.378C150.337 479.038 148.356 478.054 146.17 478.054C143.817 478.054 142.271 479.179 141.893 480.969L144.412 481.173C144.597 480.521 145.179 480.042 146.157 480.042C147.084 480.042 147.614 480.509 147.614 481.314V481.352C147.614 481.985 146.943 482.068 145.237 482.234C143.293 482.413 141.548 483.065 141.548 485.258C141.548 487.201 142.935 488.185 144.808 488.185ZM145.588 486.306C144.751 486.306 144.15 485.916 144.15 485.168C144.15 484.401 144.783 484.024 145.741 483.89C146.336 483.807 147.308 483.666 147.634 483.449V484.491C147.634 485.52 146.783 486.306 145.588 486.306ZM152.45 488H155.173V482.445C155.173 481.237 156.055 480.406 157.257 480.406C157.634 480.406 158.152 480.47 158.407 480.553V478.137C158.164 478.08 157.826 478.041 157.551 478.041C156.451 478.041 155.55 478.68 155.192 479.895H155.09V478.182H152.45V488ZM163.794 488.192C166.409 488.192 168.051 486.658 168.179 484.401H165.61C165.45 485.45 164.759 486.038 163.826 486.038C162.554 486.038 161.73 484.97 161.73 483.091C161.73 481.237 162.561 480.176 163.826 480.176C164.823 480.176 165.463 480.835 165.61 481.812H168.179C168.064 479.543 166.345 478.054 163.781 478.054C160.803 478.054 158.962 480.119 158.962 483.129C158.962 486.114 160.771 488.192 163.794 488.192ZM172.646 482.324C172.652 481.058 173.425 480.317 174.538 480.317C175.643 480.317 176.295 481.026 176.289 482.234V488H179.012V481.749C179.018 479.447 177.663 478.054 175.618 478.054C174.129 478.054 173.131 478.757 172.684 479.914H172.569V474.909H169.923V488H172.646V482.324ZM185.321 491.682H188.044V486.428H188.127C188.504 487.246 189.329 488.16 190.914 488.16C193.151 488.16 194.896 486.389 194.896 483.104C194.896 479.729 193.075 478.054 190.92 478.054C189.278 478.054 188.491 479.032 188.127 479.831H188.006V478.182H185.321V491.682ZM187.987 483.091C187.987 481.339 188.728 480.221 190.051 480.221C191.4 480.221 192.116 481.391 192.116 483.091C192.116 484.804 191.387 485.993 190.051 485.993C188.741 485.993 187.987 484.842 187.987 483.091ZM199.511 488.185C200.962 488.185 201.902 487.553 202.381 486.638H202.458V488H205.04V481.378C205.04 479.038 203.059 478.054 200.873 478.054C198.521 478.054 196.974 479.179 196.597 480.969L199.115 481.173C199.3 480.521 199.882 480.042 200.86 480.042C201.787 480.042 202.317 480.509 202.317 481.314V481.352C202.317 481.985 201.646 482.068 199.94 482.234C197.996 482.413 196.251 483.065 196.251 485.258C196.251 487.201 197.638 488.185 199.511 488.185ZM200.291 486.306C199.454 486.306 198.853 485.916 198.853 485.168C198.853 484.401 199.486 484.024 200.445 483.89C201.039 483.807 202.011 483.666 202.337 483.449V484.491C202.337 485.52 201.487 486.306 200.291 486.306ZM207.153 491.682H209.876V486.428H209.959C210.336 487.246 211.161 488.16 212.746 488.16C214.983 488.16 216.728 486.389 216.728 483.104C216.728 479.729 214.907 478.054 212.752 478.054C211.11 478.054 210.324 479.032 209.959 479.831H209.838V478.182H207.153V491.682ZM209.819 483.091C209.819 481.339 210.56 480.221 211.883 480.221C213.232 480.221 213.948 481.391 213.948 483.091C213.948 484.804 213.219 485.993 211.883 485.993C210.573 485.993 209.819 484.842 209.819 483.091ZM223.018 488.192C225.447 488.192 227.083 487.009 227.467 485.188L224.949 485.021C224.674 485.769 223.971 486.159 223.063 486.159C221.701 486.159 220.838 485.258 220.838 483.794V483.788H227.525V483.04C227.525 479.703 225.505 478.054 222.909 478.054C220.02 478.054 218.147 480.106 218.147 483.136C218.147 486.249 219.995 488.192 223.018 488.192ZM220.838 482.1C220.896 480.982 221.746 480.087 222.954 480.087C224.137 480.087 224.955 480.93 224.961 482.1H220.838ZM229.301 488H232.025V482.445C232.025 481.237 232.907 480.406 234.108 480.406C234.485 480.406 235.003 480.47 235.259 480.553V478.137C235.016 478.08 234.677 478.041 234.402 478.041C233.303 478.041 232.402 478.68 232.044 479.895H231.941V478.182H229.301V488ZM246.055 478.182H244.208V475.83H241.485V478.182H240.142V480.227H241.485V485.341C241.472 487.265 242.782 488.217 244.757 488.134C245.461 488.109 245.959 487.968 246.234 487.879L245.806 485.852C245.672 485.878 245.384 485.942 245.128 485.942C244.585 485.942 244.208 485.737 244.208 484.983V480.227H246.055V478.182ZM252.159 488.192C255.138 488.192 256.992 486.153 256.992 483.129C256.992 480.087 255.138 478.054 252.159 478.054C249.181 478.054 247.327 480.087 247.327 483.129C247.327 486.153 249.181 488.192 252.159 488.192ZM252.172 486.082C250.798 486.082 250.095 484.823 250.095 483.11C250.095 481.397 250.798 480.131 252.172 480.131C253.521 480.131 254.224 481.397 254.224 483.11C254.224 484.823 253.521 486.082 252.172 486.082ZM267.365 488.192C269.979 488.192 271.622 486.658 271.749 484.401H269.18C269.02 485.45 268.33 486.038 267.396 486.038C266.124 486.038 265.3 484.97 265.3 483.091C265.3 481.237 266.131 480.176 267.396 480.176C268.394 480.176 269.033 480.835 269.18 481.812H271.749C271.634 479.543 269.915 478.054 267.352 478.054C264.373 478.054 262.532 480.119 262.532 483.129C262.532 486.114 264.341 488.192 267.365 488.192ZM277.929 488.192C280.908 488.192 282.761 486.153 282.761 483.129C282.761 480.087 280.908 478.054 277.929 478.054C274.95 478.054 273.097 480.087 273.097 483.129C273.097 486.153 274.95 488.192 277.929 488.192ZM277.942 486.082C276.567 486.082 275.864 484.823 275.864 483.11C275.864 481.397 276.567 480.131 277.942 480.131C279.29 480.131 279.994 481.397 279.994 483.11C279.994 484.823 279.29 486.082 277.942 486.082ZM284.532 488H287.255V482.107C287.255 481.02 287.945 480.298 288.853 480.298C289.748 480.298 290.349 480.911 290.349 481.876V488H292.989V482.004C292.989 480.988 293.57 480.298 294.561 480.298C295.43 480.298 296.082 480.841 296.082 481.934V488H298.799V481.397C298.799 479.268 297.533 478.054 295.705 478.054C294.267 478.054 293.148 478.789 292.746 479.914H292.643C292.33 478.776 291.327 478.054 289.978 478.054C288.655 478.054 287.651 478.757 287.242 479.914H287.127V478.182H284.532V488ZM300.95 491.682H303.673V486.428H303.756C304.133 487.246 304.958 488.16 306.543 488.16C308.78 488.16 310.525 486.389 310.525 483.104C310.525 479.729 308.703 478.054 306.549 478.054C304.907 478.054 304.12 479.032 303.756 479.831H303.635V478.182H300.95V491.682ZM303.615 483.091C303.615 481.339 304.357 480.221 305.68 480.221C307.029 480.221 307.745 481.391 307.745 483.091C307.745 484.804 307.016 485.993 305.68 485.993C304.37 485.993 303.615 484.842 303.615 483.091ZM318.637 483.82C318.643 485.136 317.742 485.827 316.764 485.827C315.735 485.827 315.07 485.104 315.064 483.947V478.182H312.341V484.433C312.347 486.728 313.689 488.128 315.664 488.128C317.141 488.128 318.202 487.367 318.643 486.217H318.745V488H321.36V478.182H318.637V483.82ZM328.76 478.182H326.913V475.83H324.19V478.182H322.847V480.227H324.19V485.341C324.177 487.265 325.487 488.217 327.463 488.134C328.166 488.109 328.664 487.968 328.939 487.879L328.511 485.852C328.377 485.878 328.089 485.942 327.833 485.942C327.29 485.942 326.913 485.737 326.913 484.983V480.227H328.76V478.182ZM334.903 488.192C337.332 488.192 338.968 487.009 339.352 485.188L336.833 485.021C336.558 485.769 335.855 486.159 334.948 486.159C333.586 486.159 332.723 485.258 332.723 483.794V483.788H339.409V483.04C339.409 479.703 337.389 478.054 334.794 478.054C331.905 478.054 330.032 480.106 330.032 483.136C330.032 486.249 331.879 488.192 334.903 488.192ZM332.723 482.1C332.781 480.982 333.631 480.087 334.839 480.087C336.021 480.087 336.84 480.93 336.846 482.1H332.723ZM341.186 488H343.909V482.445C343.909 481.237 344.791 480.406 345.993 480.406C346.37 480.406 346.888 480.47 347.144 480.553V478.137C346.901 478.08 346.562 478.041 346.287 478.041C345.188 478.041 344.286 478.68 343.928 479.895H343.826V478.182H341.186V488Z" fill="#333333"/>
<path d="M261.842 482.107H347.457V483.826H261.842V482.107Z" fill="#333333"/>
<path d="M258 22C416.528 21.9999 467.984 61.3077 521 161" stroke="#828282" stroke-width="3" stroke-linecap="round" stroke-linejoin="round" stroke-dasharray="7 7"/>
<path d="M358 113C443 113 426.842 167 505 188" stroke="#828282" stroke-width="3" stroke-linecap="round" stroke-linejoin="round" stroke-dasharray="7 7"/>
<path d="M216 207C346.5 207 350.5 201.5 498 232" stroke="#828282" stroke-width="3" stroke-linecap="round" stroke-linejoin="round" stroke-dasharray="7 7"/>
<path d="M289.5 299.498C411 299.498 338.5 269.998 496 269.998M219 391C416.5 391 359.5 339 503 318M358 482.5C471 464.5 484 438.5 524.5 350.5" stroke="#828282" stroke-width="3" stroke-linecap="round" stroke-linejoin="round" stroke-dasharray="7 7"/>
<path d="M720 241C896 241 752 72.2028 928 71" stroke="#9D9DFF" stroke-width="3" stroke-linecap="round" stroke-linejoin="round" stroke-dasharray="7 7"/>
<path d="M720 241C896 241 752 72.2028 928 71" stroke="url(#paint0_linear)" stroke-width="3" stroke-linecap="round" stroke-linejoin="round" stroke-dasharray="7 7"/>
<path d="M720 271C896 271 752 439.797 928 441" stroke="#62D97E" stroke-width="3" stroke-linecap="round" stroke-linejoin="round" stroke-dasharray="7 7"/>
<path d="M720 271C896 271 752 439.797 928 441" stroke="url(#paint1_linear)" stroke-width="3" stroke-linecap="round" stroke-linejoin="round" stroke-dasharray="7 7"/>
<path d="M720 256H928" stroke="#FF7397" stroke-width="3" stroke-linecap="round" stroke-linejoin="round" stroke-dasharray="7 7"/>
<path d="M720 256H928" stroke="url(#paint2_linear)" stroke-width="3" stroke-linecap="round" stroke-linejoin="round" stroke-dasharray="7 7"/>
<rect x="510" y="156" width="200" height="200" rx="56" fill="#38CEFF"/>
<path d="M563.836 270H557.438V244.898H558.984L561.094 247.336C562.125 246.398 563.289 245.68 564.586 245.18C565.898 244.664 567.266 244.406 568.688 244.406C570.219 244.406 571.664 244.703 573.023 245.297C574.383 245.875 575.57 246.68 576.586 247.711C577.602 248.727 578.398 249.922 578.977 251.297C579.57 252.656 579.867 254.109 579.867 255.656V270H573.469V255.656C573.469 255 573.344 254.383 573.094 253.805C572.844 253.211 572.5 252.695 572.062 252.258C571.625 251.82 571.117 251.477 570.539 251.227C569.961 250.977 569.344 250.852 568.688 250.852C568.016 250.852 567.383 250.977 566.789 251.227C566.195 251.477 565.68 251.82 565.242 252.258C564.805 252.695 564.461 253.211 564.211 253.805C563.961 254.383 563.836 255 563.836 255.656V270ZM594.422 263.859C594.672 263.938 594.922 263.992 595.172 264.023C595.422 264.039 595.672 264.047 595.922 264.047C596.547 264.047 597.148 263.961 597.727 263.789C598.305 263.617 598.844 263.375 599.344 263.062C599.859 262.734 600.312 262.344 600.703 261.891C601.109 261.422 601.438 260.906 601.688 260.344L606.375 265.055C605.781 265.898 605.094 266.656 604.312 267.328C603.547 268 602.711 268.57 601.805 269.039C600.914 269.508 599.969 269.859 598.969 270.094C597.984 270.344 596.969 270.469 595.922 270.469C594.156 270.469 592.492 270.141 590.93 269.484C589.383 268.828 588.023 267.914 586.852 266.742C585.695 265.57 584.781 264.18 584.109 262.57C583.438 260.945 583.102 259.164 583.102 257.227C583.102 255.242 583.438 253.43 584.109 251.789C584.781 250.148 585.695 248.75 586.852 247.594C588.023 246.438 589.383 245.539 590.93 244.898C592.492 244.258 594.156 243.938 595.922 243.938C596.969 243.938 597.992 244.062 598.992 244.312C599.992 244.562 600.938 244.922 601.828 245.391C602.734 245.859 603.578 246.438 604.359 247.125C605.141 247.797 605.828 248.555 606.422 249.398L594.422 263.859ZM597.703 250.664C597.406 250.555 597.109 250.484 596.812 250.453C596.531 250.422 596.234 250.406 595.922 250.406C595.047 250.406 594.219 250.57 593.438 250.898C592.672 251.211 592 251.664 591.422 252.258C590.859 252.852 590.414 253.57 590.086 254.414C589.758 255.242 589.594 256.18 589.594 257.227C589.594 257.461 589.602 257.727 589.617 258.023C589.648 258.32 589.688 258.625 589.734 258.938C589.797 259.234 589.867 259.523 589.945 259.805C590.023 260.086 590.125 260.336 590.25 260.555L597.703 250.664ZM641.344 260.93C641.344 262.242 641.094 263.484 640.594 264.656C640.094 265.812 639.406 266.82 638.531 267.68C637.672 268.539 636.656 269.219 635.484 269.719C634.328 270.219 633.086 270.469 631.758 270.469C630.57 270.469 629.43 270.266 628.336 269.859C627.242 269.438 626.25 268.828 625.359 268.031C624.484 268.828 623.5 269.438 622.406 269.859C621.328 270.266 620.188 270.469 618.984 270.469C617.656 270.469 616.414 270.219 615.258 269.719C614.102 269.219 613.086 268.539 612.211 267.68C611.352 266.82 610.672 265.812 610.172 264.656C609.672 263.484 609.422 262.242 609.422 260.93V244.945H615.82V260.93C615.82 261.367 615.898 261.781 616.055 262.172C616.227 262.547 616.453 262.883 616.734 263.18C617.031 263.461 617.367 263.688 617.742 263.859C618.133 264.016 618.547 264.094 618.984 264.094C619.422 264.094 619.836 264.016 620.227 263.859C620.617 263.688 620.961 263.461 621.258 263.18C621.555 262.883 621.781 262.547 621.938 262.172C622.109 261.781 622.195 261.367 622.195 260.93V244.945H628.57V260.93C628.57 261.367 628.656 261.781 628.828 262.172C629 262.547 629.227 262.883 629.508 263.18C629.805 263.461 630.141 263.688 630.516 263.859C630.906 264.016 631.32 264.094 631.758 264.094C632.195 264.094 632.609 264.016 633 263.859C633.391 263.688 633.727 263.461 634.008 263.18C634.305 262.883 634.539 262.547 634.711 262.172C634.883 261.781 634.969 261.367 634.969 260.93V244.945H641.344V260.93ZM658.57 270C657.023 270 655.57 269.711 654.211 269.133C652.852 268.539 651.656 267.734 650.625 266.719C649.609 265.688 648.805 264.492 648.211 263.133C647.633 261.773 647.344 260.32 647.344 258.773V251.32H644.227V244.945H647.344V234.914H653.719V244.945H663.422V251.32H653.719V258.773C653.719 259.445 653.844 260.078 654.094 260.672C654.344 261.25 654.688 261.758 655.125 262.195C655.562 262.633 656.078 262.984 656.672 263.25C657.266 263.5 657.898 263.625 658.57 263.625H663.422V270H658.57Z" fill="white"/>
<defs>
<linearGradient id="paint0_linear" x1="928" y1="71" x2="720" y2="241" gradientUnits="userSpaceOnUse">
<stop offset="0.200278" stop-color="white" stop-opacity="0"/>
<stop offset="1" stop-color="#38CEFF"/>
</linearGradient>
<linearGradient id="paint1_linear" x1="720" y1="271" x2="924.5" y2="441" gradientUnits="userSpaceOnUse">
<stop stop-color="#38CEFF"/>
<stop offset="0.721236" stop-color="white" stop-opacity="0"/>
</linearGradient>
<linearGradient id="paint2_linear" x1="720" y1="256" x2="928" y2="256" gradientUnits="userSpaceOnUse">
<stop stop-color="#38CEFF"/>
<stop offset="0.731703" stop-color="white" stop-opacity="0"/>
</linearGradient>
</defs>
</svg>
